<?xml version="1.0" standalone="no"?>
<!DOCTYPE svg PUBLIC "-//W3C//DTD SVG 20010904//EN"
 "http://www.w3.org/TR/2001/REC-SVG-20010904/DTD/svg10.dtd">
<svg version="1.0" xmlns="http://www.w3.org/2000/svg"
 width="7200.000000pt" height="4050.000000pt" viewBox="0 0 7200.000000 4050.000000"
 preserveAspectRatio="xMidYMid meet">

<g transform="translate(0.000000,4050.000000) scale(0.100000,-0.100000)"
fill="#000000" stroke="none">
<path d="M34945 7754 c-81 -5 -200 -23 -257 -39 -26 -8 -112 -19 -190 -25 -79
-6 -174 -17 -213 -25 -82 -17 -211 -32 -348 -40 -53 -3 -161 -17 -240 -31 -78
-14 -212 -29 -298 -34 -86 -5 -221 -21 -300 -34 -79 -14 -183 -28 -231 -32
-53 -4 -92 -12 -99 -20 -8 -10 -8 -38 0 -101 6 -48 12 -112 14 -141 5 -59 14
-74 48 -74 62 -2 328 24 383 36 97 22 191 35 334 46 73 5 162 17 197 27 62 16
66 16 83 0 16 -17 17 -162 20 -2669 2 -2102 5 -2654 15 -2660 6 -4 287 -8 623
-8 461 0 613 3 622 12 9 9 12 668 12 2904 0 1591 -3 2895 -7 2897 -14 8 -106
14 -168 11z"/>
<path d="M37390 7729 c-204 -7 -394 -8 -690 -6 -58 1 -307 -3 -553 -8 -480 -9
-484 -9 -472 -58 3 -12 7 -59 8 -105 2 -60 7 -86 17 -93 15 -10 132 -9 1225 9
259 4 481 6 495 4 14 -2 127 -4 251 -6 125 -2 232 -6 238 -10 33 -21 -3 -62
-476 -536 -889 -889 -1420 -1426 -1437 -1452 -37 -57 -61 -55 766 -53 414 2
876 -1 1026 -5 l274 -8 86 -43 c97 -48 143 -86 207 -169 55 -73 61 -85 91
-177 30 -92 40 -183 26 -238 -6 -22 -19 -72 -29 -111 -28 -105 -88 -198 -194
-301 -51 -48 -154 -151 -229 -228 -76 -77 -551 -555 -1056 -1061 -506 -507
-965 -969 -1021 -1027 -56 -58 -111 -108 -122 -112 -24 -7 -25 -13 -7 -38 12
-16 43 -17 394 -17 225 0 382 4 384 9 2 5 112 14 246 20 242 9 272 15 272 47
0 7 15 24 33 36 19 13 112 104 207 203 95 99 180 185 190 192 9 6 176 177 371
379 195 202 385 397 423 433 38 36 216 219 396 406 180 187 403 414 495 505
228 225 283 309 331 507 24 98 26 120 21 243 -9 213 -50 340 -164 506 -107
156 -319 293 -533 346 -95 23 -96 23 -787 23 -514 0 -695 3 -704 12 -9 9 -8
17 4 33 16 23 519 530 964 971 594 589 933 938 927 954 -3 8 -9 15 -13 16 -60
7 -658 6 -946 -1 -330 -9 -390 -9 -460 5 -84 16 -115 16 -475 4z"/>
</g>
</svg>
